<svg id="color" enable-background="new 0 0 24 24" height="512" viewBox="0 0 24 24" width="512" xmlns="http://www.w3.org/2000/svg"><g fill="#b0bec5"><path d="m3.75 5.5c-.552 0-1-.448-1-1v-3.5c0-.552.448-1 1-1s1 .448 1 1v3.5c0 .552-.448 1-1 1z"/><path d="m8.5 5.5c-.552 0-1-.448-1-1v-3.5c0-.552.448-1 1-1s1 .448 1 1v3.5c0 .552-.448 1-1 1z"/><path d="m13.25 5.5c-.552 0-1-.448-1-1v-3.5c0-.552.448-1 1-1s1 .448 1 1v3.5c0 .552-.448 1-1 1z"/></g><path d="m14.25 2.25h-11.5c-1.52 0-2.75 1.23-2.75 2.75v13.25c0 1.52 1.23 2.75 2.75 2.75h4.9c.1-.4.28-.78.51-1.13l5.22-8.48c.67-1.15 1.97-1.89 3.37-1.89.08 0 .17 0 .25.01v-4.51c0-1.52-1.23-2.75-2.75-2.75z" fill="#eceff1"/><path d="m11 13h-7c-.552 0-1-.448-1-1s.448-1 1-1h7c.552 0 1 .448 1 1s-.448 1-1 1z" fill="#90a4ae"/><path d="m8 9h-4c-.552 0-1-.448-1-1s.448-1 1-1h4c.552 0 1 .448 1 1s-.448 1-1 1z" fill="#90a4ae"/><path d="m22.038 24h-10.576c-1.082 0-1.962-.877-1.962-1.955 0-.384.109-.749.315-1.055l5.266-8.557c.335-.569.979-.934 1.669-.934s1.334.364 1.679.951l5.278 8.574c.184.272.293.637.293 1.021 0 1.078-.88 1.955-1.962 1.955zm-.02-1.907c.002.005.005.009.009.014zm.982-.048h.01z" fill="#FFBA57"/><path d="m16.75 19.5c-.553 0-1-.448-1-1v-2c0-.552.447-1 1-1s1 .448 1 1v2c0 .552-.447 1-1 1z" fill="#fff"/><circle cx="16.75" cy="21" fill="#fff" r="1"/></svg>