<?xml version="1.0" encoding="iso-8859-1"?>
<!-- Generator: Adobe Illustrator 18.0.0, SVG Export Plug-In . SVG Version: 6.00 Build 0)  -->
<!DOCTYPE svg PUBLIC "-//W3C//DTD SVG 1.1//EN" "http://www.w3.org/Graphics/SVG/1.1/DTD/svg11.dtd">
<svg version="1.1" id="Capa_1" xmlns="http://www.w3.org/2000/svg" xmlns:xlink="http://www.w3.org/1999/xlink" x="0px" y="0px"
	 viewBox="0 0 56 56" style="enable-background:new 0 0 56 56;" xml:space="preserve">
<g>
	<path style="fill:#e9ecef;" d="M36.985,0H7.963C7.155,0,6.5,0.655,6.5,1.926V55c0,0.345,0.655,1,1.463,1h40.074
		c0.808,0,1.463-0.655,1.463-1V12.978c0-0.696-0.093-0.92-0.257-1.085L37.607,0.257C37.442,0.093,37.218,0,36.985,0z"/>
	<path style="fill:#EC6630;" d="M48.037,56H7.963C7.155,56,6.5,55.345,6.5,54.537V39h43v15.537C49.5,55.345,48.845,56,48.037,56z"/>
	<g>
		<path style="fill:#EC6630;" d="M23.207,16.293c-0.391-0.391-1.023-0.391-1.414,0l-6,6c-0.391,0.391-0.391,1.023,0,1.414l6,6
			C21.988,29.902,22.244,30,22.5,30s0.512-0.098,0.707-0.293c0.391-0.391,0.391-1.023,0-1.414L17.914,23l5.293-5.293
			C23.598,17.316,23.598,16.684,23.207,16.293z"/>
		<path style="fill:#EC6630;" d="M41.207,22.293l-6-6c-0.391-0.391-1.023-0.391-1.414,0s-0.391,1.023,0,1.414L39.086,23
			l-5.293,5.293c-0.391,0.391-0.391,1.023,0,1.414C33.988,29.902,34.244,30,34.5,30s0.512-0.098,0.707-0.293l6-6
			C41.598,23.316,41.598,22.684,41.207,22.293z"/>
	</g>
</g>
</svg>
