<?xml version="1.0" encoding="iso-8859-1"?>
<!-- Generator: Adobe Illustrator 18.0.0, SVG Export Plug-In . SVG Version: 6.00 Build 0)  -->
<!DOCTYPE svg PUBLIC "-//W3C//DTD SVG 1.1//EN" "http://www.w3.org/Graphics/SVG/1.1/DTD/svg11.dtd">
<svg version="1.1" id="Capa_1" xmlns="http://www.w3.org/2000/svg" xmlns:xlink="http://www.w3.org/1999/xlink" x="0px" y="0px"
	 viewBox="0 0 56 56" style="enable-background:new 0 0 56 56;" xml:space="preserve">
<g>
	<path style="fill:#e9ecef;" d="M36.985,0H7.963C7.155,0,6.5,0.655,6.5,1.926V55c0,0.345,0.655,1,1.463,1h40.074
		c0.808,0,1.463-0.655,1.463-1V12.978c0-0.696-0.093-0.92-0.257-1.085L37.607,0.257C37.442,0.093,37.218,0,36.985,0z"/>
	<path style="fill:#FF5364;" d="M48.037,56H7.963C7.155,56,6.5,55.345,6.5,54.537V39h43v15.537C49.5,55.345,48.845,56,48.037,56z"/>
	<path style="fill:#C8BDB8;" d="M24.5,28c-0.166,0-0.331-0.041-0.481-0.123C23.699,27.701,23.5,27.365,23.5,27V13
		c0-0.365,0.199-0.701,0.519-0.877c0.321-0.175,0.71-0.162,1.019,0.033l11,7C36.325,19.34,36.5,19.658,36.5,20
		s-0.175,0.66-0.463,0.844l-11,7C24.874,27.947,24.687,28,24.5,28z M25.5,14.821v10.357L33.637,20L25.5,14.821z"/>
	<path style="fill:#C8BDB8;" d="M28.5,35c-8.271,0-15-6.729-15-15s6.729-15,15-15s15,6.729,15,15S36.771,35,28.5,35z M28.5,7
		c-7.168,0-13,5.832-13,13s5.832,13,13,13s13-5.832,13-13S35.668,7,28.5,7z"/>
</g>
</svg>
