<?xml version="1.0" encoding="iso-8859-1"?>
<!-- Generator: Adobe Illustrator 18.0.0, SVG Export Plug-In . SVG Version: 6.00 Build 0)  -->
<!DOCTYPE svg PUBLIC "-//W3C//DTD SVG 1.1//EN" "http://www.w3.org/Graphics/SVG/1.1/DTD/svg11.dtd">
<svg version="1.1" id="Capa_1" xmlns="http://www.w3.org/2000/svg" xmlns:xlink="http://www.w3.org/1999/xlink" x="0px" y="0px"
	 viewBox="0 0 56 56" style="enable-background:new 0 0 56 56;" xml:space="preserve">
<g>
	<path style="fill:#e9ecef;" d="M36.985,0H7.963C7.155,0,6.5,0.655,6.5,1.926V55c0,0.345,0.655,1,1.463,1h40.074
		c0.808,0,1.463-0.655,1.463-1V12.978c0-0.696-0.093-0.92-0.257-1.085L37.607,0.257C37.442,0.093,37.218,0,36.985,0z"/>
	<path style="fill:#CC4B4C;" d="M19.514,33.324L19.514,33.324c-0.348,0-0.682-0.113-0.967-0.326
		c-1.041-0.781-1.181-1.65-1.115-2.242c0.182-1.628,2.195-3.332,5.985-5.068c1.504-3.296,2.935-7.357,3.788-10.75
		c-0.998-2.172-1.968-4.99-1.261-6.643c0.248-0.579,0.557-1.023,1.134-1.215c0.228-0.076,0.804-0.172,1.016-0.172
		c0.504,0,0.947,0.649,1.261,1.049c0.295,0.376,0.964,1.173-0.373,6.802c1.348,2.784,3.258,5.62,5.088,7.562
		c1.311-0.237,2.439-0.358,3.358-0.358c1.566,0,2.515,0.365,2.902,1.117c0.32,0.622,0.189,1.349-0.39,2.16
		c-0.557,0.779-1.325,1.191-2.22,1.191c-1.216,0-2.632-0.768-4.211-2.285c-2.837,0.593-6.15,1.651-8.828,2.822
		c-0.836,1.774-1.637,3.203-2.383,4.251C21.273,32.654,20.389,33.324,19.514,33.324z M22.176,28.198
		c-2.137,1.201-3.008,2.188-3.071,2.744c-0.01,0.092-0.037,0.334,0.431,0.692C19.685,31.587,20.555,31.19,22.176,28.198z
		 M35.813,23.756c0.815,0.627,1.014,0.944,1.547,0.944c0.234,0,0.901-0.01,1.21-0.441c0.149-0.209,0.207-0.343,0.23-0.415
		c-0.123-0.065-0.286-0.197-1.175-0.197C37.12,23.648,36.485,23.67,35.813,23.756z M28.343,17.174
		c-0.715,2.474-1.659,5.145-2.674,7.564c2.09-0.811,4.362-1.519,6.496-2.02C30.815,21.15,29.466,19.192,28.343,17.174z
		 M27.736,8.712c-0.098,0.033-1.33,1.757,0.096,3.216C28.781,9.813,27.779,8.698,27.736,8.712z"/>
	<path style="fill:#CC4B4C;" d="M48.037,56H7.963C7.155,56,6.5,55.345,6.5,54.537V39h43v15.537C49.5,55.345,48.845,56,48.037,56z"/>
</g>
</svg>
