<?xml version="1.0" encoding="iso-8859-1"?>
<!-- Generator: Adobe Illustrator 18.0.0, SVG Export Plug-In . SVG Version: 6.00 Build 0)  -->
<!DOCTYPE svg PUBLIC "-//W3C//DTD SVG 1.1//EN" "http://www.w3.org/Graphics/SVG/1.1/DTD/svg11.dtd">
<svg version="1.1" id="Capa_1" xmlns="http://www.w3.org/2000/svg" xmlns:xlink="http://www.w3.org/1999/xlink" x="0px" y="0px"
	 viewBox="0 0 56 56" style="enable-background:new 0 0 56 56;" xml:space="preserve">
<g>
	<path style="fill:#e9ecef;" d="M36.985,0H7.963C7.155,0,6.5,0.655,6.5,1.926V55c0,0.345,0.655,1,1.463,1h40.074
		c0.808,0,1.463-0.655,1.463-1V12.978c0-0.696-0.093-0.92-0.257-1.085L37.607,0.257C37.442,0.093,37.218,0,36.985,0z"/>
	<path style="fill:#5889C4;" d="M48.037,56H7.963C7.155,56,6.5,55.345,6.5,54.537V39h43v15.537C49.5,55.345,48.845,56,48.037,56z"/>
	<path style="fill:#C8BDB8;" d="M38.894,11.163c-0.463-0.301-1.082-0.171-1.384,0.291c-1.433,2.196-3.979,5.164-5.19,6.375
		l-2.788,2.788l-2.828-2.828L29.49,15c1.771-1.771,6.271-5.442,8.116-6.102c0.04-0.006,0.091-0.015,0.112-0.02
		c0.521-0.117,0.827-0.617,0.735-1.143c-0.093-0.526-0.616-0.885-1.143-0.814l-0.283,0.062c-2.439,0.813-7.457,5.108-8.952,6.604
		l-7.185,7.185c-0.095-0.004-0.189-0.014-0.285-0.014c-2.971,0-5.463,2.125-5.983,5.016l-0.108,0.073l-0.02,0.536
		c-0.034,0.942-0.302,4.052-2.343,4.546c-0.517,0.129-0.858,0.625-0.793,1.152L11.52,33h6.98l0.02,0v0l2.086-0.03
		c3.367,0,6.107-2.74,6.107-6.107c0-0.193-0.011-0.383-0.029-0.572l7.049-7.048c1.305-1.305,3.925-4.358,5.451-6.696
		C39.486,12.084,39.356,11.465,38.894,11.163z M20.606,30.97h-3.739L16.882,31h-1.661c0.887-1.341,1.161-3.037,1.244-4.045
		l0.082-0.504c0.213-2.106,1.958-3.694,4.06-3.694c0.121,0,0.235,0.025,0.354,0.036l0.167,0.021c1.045,0.134,1.956,0.655,2.6,1.411
		c0.058,0.069,0.118,0.135,0.171,0.208c0.082,0.11,0.155,0.227,0.226,0.345c0.05,0.085,0.097,0.172,0.142,0.26
		c0.063,0.126,0.124,0.254,0.174,0.387c0.03,0.08,0.052,0.164,0.077,0.247c0.045,0.147,0.091,0.294,0.12,0.449l0.005,0.026
		c0.041,0.234,0.072,0.471,0.072,0.716C24.713,29.127,22.871,30.97,20.606,30.97z M25.516,23.247
		c-0.007-0.009-0.013-0.017-0.02-0.026c-0.605-0.811-1.405-1.465-2.332-1.895l2.123-2.123l2.828,2.828l-2.071,2.07
		C25.893,23.801,25.715,23.516,25.516,23.247z"/>
</g>
</svg>
